<?xml version="1.0" encoding="us-ascii" standalone="no"?><svg xmlns="http://www.w3.org/2000/svg" xmlns:xlink="http://www.w3.org/1999/xlink" contentStyleType="text/css" height="547px" preserveAspectRatio="none" style="width:1648px;height:547px;background:#FFFFFF;" version="1.1" viewBox="0 0 1648 547" width="1648px" zoomAndPan="magnify"><defs/><g><!--class PaymentGatewayType--><g id="elem_PaymentGatewayType"><rect codeLine="2" fill="#F1F1F1" height="118.4375" id="PaymentGatewayType" rx="2.5" ry="2.5" style="stroke:#181818;stroke-width:0.5;" width="174" x="361.5" y="422"/><ellipse cx="376.5" cy="438" fill="#EB937F" rx="11" ry="11" style="stroke:#181818;stroke-width:1.0;"/><path d="M375.3594,438.7969 L375.3594,441.2969 L379.6875,441.2969 L379.6875,440.375 Q379.6875,439.7656 379.9219,439.5 Q380.1719,439.2344 380.5469,439.2344 Q380.9219,439.2344 381.1563,439.5 Q381.3906,439.7656 381.3906,440.375 L381.3906,443 L373.3906,443 Q372.7656,443 372.5,442.7656 Q372.25,442.5313 372.25,442.1406 Q372.25,441.7656 372.5156,441.5313 Q372.7813,441.2969 373.3906,441.2969 L373.6563,441.2969 L373.6563,434.6406 L373.3906,434.6406 Q372.7656,434.6406 372.5,434.4063 Q372.25,434.1719 372.25,433.7813 Q372.25,433.4063 372.5,433.1719 Q372.7656,432.9375 373.3906,432.9375 L381.0156,432.9375 L381.0156,435.5313 Q381.0156,436.1406 380.7813,436.4063 Q380.5625,436.6563 380.1719,436.6563 Q379.7969,436.6563 379.5625,436.4063 Q379.3281,436.1406 379.3281,435.5313 L379.3281,434.6406 L375.3594,434.6406 L375.3594,437.0938 L376.8438,437.0938 Q376.8438,436.4375 376.9688,436.25 Q377.2344,435.8438 377.7031,435.8438 Q378.0781,435.8438 378.3125,436.1094 Q378.5469,436.3594 378.5469,436.9688 L378.5469,438.9375 Q378.5469,439.4844 378.4219,439.6719 Q378.1563,440.0625 377.7031,440.0625 Q377.2344,440.0625 376.9688,439.6563 Q376.8438,439.4688 376.8438,438.7969 L375.3594,438.7969 Z " fill="#000000"/><text fill="#000000" font-family="sans-serif" font-size="14" lengthAdjust="spacing" textLength="142" x="390.5" y="443.7285">PaymentGatewayType</text><line style="stroke:#181818;stroke-width:0.5;" x1="362.5" x2="534.5" y1="454" y2="454"/><text fill="#000000" font-family="sans-serif" font-size="14" lengthAdjust="spacing" textLength="75" x="367.5" y="472.5332">RAZORPAY</text><text fill="#000000" font-family="sans-serif" font-size="14" lengthAdjust="spacing" textLength="36" x="367.5" y="490.1426">PAYU</text><text fill="#000000" font-family="sans-serif" font-size="14" lengthAdjust="spacing" textLength="64" x="367.5" y="507.752">RAKUTEN</text><text fill="#000000" font-family="sans-serif" font-size="14" lengthAdjust="spacing" textLength="56" x="367.5" y="525.3613">LINEPAY</text><line style="stroke:#181818;stroke-width:0.5;" x1="362.5" x2="534.5" y1="532.4375" y2="532.4375"/></g><!--class PaymentGateway--><g id="elem_PaymentGateway"><rect codeLine="9" fill="#F1F1F1" height="65.6094" id="PaymentGateway" rx="2.5" ry="2.5" style="stroke:#181818;stroke-width:0.5;" width="298" x="299.5" y="286.5"/><ellipse cx="389.25" cy="302.5" fill="#B4A7E5" rx="11" ry="11" style="stroke:#181818;stroke-width:1.0;"/><path d="M390.2031,299.1406 L390.2031,305.7969 L391.9219,305.7969 Q392.5313,305.7969 392.7969,306.0313 Q393.0625,306.2656 393.0625,306.6563 Q393.0625,307.0313 392.7969,307.2656 Q392.5313,307.5 391.9219,307.5 L386.7813,307.5 Q386.1719,307.5 385.9063,307.2656 Q385.6406,307.0313 385.6406,306.6406 Q385.6406,306.2656 385.9063,306.0313 Q386.1719,305.7969 386.7813,305.7969 L388.5,305.7969 L388.5,299.1406 L386.7813,299.1406 Q386.1719,299.1406 385.9063,298.9063 Q385.6406,298.6719 385.6406,298.2813 Q385.6406,297.9063 385.9063,297.6719 Q386.1719,297.4375 386.7813,297.4375 L391.9219,297.4375 Q392.5313,297.4375 392.7969,297.6719 Q393.0625,297.9063 393.0625,298.2813 Q393.0625,298.6719 392.7969,298.9063 Q392.5313,299.1406 391.9219,299.1406 L390.2031,299.1406 Z " fill="#000000"/><text fill="#000000" font-family="sans-serif" font-size="14" font-style="italic" lengthAdjust="spacing" textLength="110" x="409.75" y="308.2285">PaymentGateway</text><line style="stroke:#181818;stroke-width:0.5;" x1="300.5" x2="596.5" y1="318.5" y2="318.5"/><line style="stroke:#181818;stroke-width:0.5;" x1="300.5" x2="596.5" y1="326.5" y2="326.5"/><ellipse cx="310.5" cy="340.8047" fill="#84BE84" rx="3" ry="3" style="stroke:#038048;stroke-width:1.0;"/><text fill="#000000" font-family="sans-serif" font-size="14" lengthAdjust="spacing" textLength="272" x="319.5" y="345.0332">processPayment(amount: double): boolean</text></g><!--class Invoice--><g id="elem_Invoice"><rect codeLine="13" fill="#F1F1F1" height="65.6094" id="Invoice" rx="2.5" ry="2.5" style="stroke:#181818;stroke-width:0.5;" width="196" x="1270.5" y="286.5"/><ellipse cx="1342.25" cy="302.5" fill="#B4A7E5" rx="11" ry="11" style="stroke:#181818;stroke-width:1.0;"/><path d="M1343.2031,299.1406 L1343.2031,305.7969 L1344.9219,305.7969 Q1345.5313,305.7969 1345.7969,306.0313 Q1346.0625,306.2656 1346.0625,306.6563 Q1346.0625,307.0313 1345.7969,307.2656 Q1345.5313,307.5 1344.9219,307.5 L1339.7813,307.5 Q1339.1719,307.5 1338.9063,307.2656 Q1338.6406,307.0313 1338.6406,306.6406 Q1338.6406,306.2656 1338.9063,306.0313 Q1339.1719,305.7969 1339.7813,305.7969 L1341.5,305.7969 L1341.5,299.1406 L1339.7813,299.1406 Q1339.1719,299.1406 1338.9063,298.9063 Q1338.6406,298.6719 1338.6406,298.2813 Q1338.6406,297.9063 1338.9063,297.6719 Q1339.1719,297.4375 1339.7813,297.4375 L1344.9219,297.4375 Q1345.5313,297.4375 1345.7969,297.6719 Q1346.0625,297.9063 1346.0625,298.2813 Q1346.0625,298.6719 1345.7969,298.9063 Q1345.5313,299.1406 1344.9219,299.1406 L1343.2031,299.1406 Z " fill="#000000"/><text fill="#000000" font-family="sans-serif" font-size="14" font-style="italic" lengthAdjust="spacing" textLength="44" x="1362.75" y="308.2285">Invoice</text><line style="stroke:#181818;stroke-width:0.5;" x1="1271.5" x2="1465.5" y1="318.5" y2="318.5"/><line style="stroke:#181818;stroke-width:0.5;" x1="1271.5" x2="1465.5" y1="326.5" y2="326.5"/><ellipse cx="1281.5" cy="340.8047" fill="#84BE84" rx="3" ry="3" style="stroke:#038048;stroke-width:1.0;"/><text fill="#000000" font-family="sans-serif" font-size="14" lengthAdjust="spacing" textLength="170" x="1290.5" y="345.0332">generateInvoice(): boolean</text></g><!--class RegionFactory--><g id="elem_RegionFactory"><rect codeLine="17" fill="#F1F1F1" height="83.2188" id="RegionFactory" rx="2.5" ry="2.5" style="stroke:#181818;stroke-width:0.5;" width="538" x="640.5" y="278"/><ellipse cx="858.75" cy="294" fill="#B4A7E5" rx="11" ry="11" style="stroke:#181818;stroke-width:1.0;"/><path d="M859.7031,290.6406 L859.7031,297.2969 L861.4219,297.2969 Q862.0313,297.2969 862.2969,297.5313 Q862.5625,297.7656 862.5625,298.1563 Q862.5625,298.5313 862.2969,298.7656 Q862.0313,299 861.4219,299 L856.2813,299 Q855.6719,299 855.4063,298.7656 Q855.1406,298.5313 855.1406,298.1406 Q855.1406,297.7656 855.4063,297.5313 Q855.6719,297.2969 856.2813,297.2969 L858,297.2969 L858,290.6406 L856.2813,290.6406 Q855.6719,290.6406 855.4063,290.4063 Q855.1406,290.1719 855.1406,289.7813 Q855.1406,289.4063 855.4063,289.1719 Q855.6719,288.9375 856.2813,288.9375 L861.4219,288.9375 Q862.0313,288.9375 862.2969,289.1719 Q862.5625,289.4063 862.5625,289.7813 Q862.5625,290.1719 862.2969,290.4063 Q862.0313,290.6406 861.4219,290.6406 L859.7031,290.6406 Z " fill="#000000"/><text fill="#000000" font-family="sans-serif" font-size="14" font-style="italic" lengthAdjust="spacing" textLength="93" x="879.25" y="299.7285">RegionFactory</text><line style="stroke:#181818;stroke-width:0.5;" x1="641.5" x2="1177.5" y1="310" y2="310"/><line style="stroke:#181818;stroke-width:0.5;" x1="641.5" x2="1177.5" y1="318" y2="318"/><ellipse cx="651.5" cy="332.3047" fill="#84BE84" rx="3" ry="3" style="stroke:#038048;stroke-width:1.0;"/><text fill="#000000" font-family="sans-serif" font-size="14" lengthAdjust="spacing" textLength="512" x="660.5" y="336.5332">createPaymentGateway(gatewayType: PaymentGatewayType): PaymentGateway</text><ellipse cx="651.5" cy="349.9141" fill="#84BE84" rx="3" ry="3" style="stroke:#038048;stroke-width:1.0;"/><text fill="#000000" font-family="sans-serif" font-size="14" lengthAdjust="spacing" textLength="163" x="660.5" y="354.1426">generateInvoice(): Invoice</text></g><!--class CheckOutService--><g id="elem_CheckOutService"><rect codeLine="22" fill="#F1F1F1" height="65.6094" id="CheckOutService" rx="2.5" ry="2.5" style="stroke:#181818;stroke-width:0.5;" width="287" x="1033" y="151"/><ellipse cx="1117.25" cy="167" fill="#B4A7E5" rx="11" ry="11" style="stroke:#181818;stroke-width:1.0;"/><path d="M1118.2031,163.6406 L1118.2031,170.2969 L1119.9219,170.2969 Q1120.5313,170.2969 1120.7969,170.5313 Q1121.0625,170.7656 1121.0625,171.1563 Q1121.0625,171.5313 1120.7969,171.7656 Q1120.5313,172 1119.9219,172 L1114.7813,172 Q1114.1719,172 1113.9063,171.7656 Q1113.6406,171.5313 1113.6406,171.1406 Q1113.6406,170.7656 1113.9063,170.5313 Q1114.1719,170.2969 1114.7813,170.2969 L1116.5,170.2969 L1116.5,163.6406 L1114.7813,163.6406 Q1114.1719,163.6406 1113.9063,163.4063 Q1113.6406,163.1719 1113.6406,162.7813 Q1113.6406,162.4063 1113.9063,162.1719 Q1114.1719,161.9375 1114.7813,161.9375 L1119.9219,161.9375 Q1120.5313,161.9375 1120.7969,162.1719 Q1121.0625,162.4063 1121.0625,162.7813 Q1121.0625,163.1719 1120.7969,163.4063 Q1120.5313,163.6406 1119.9219,163.6406 L1118.2031,163.6406 Z " fill="#000000"/><text fill="#000000" font-family="sans-serif" font-size="14" font-style="italic" lengthAdjust="spacing" textLength="110" x="1137.75" y="172.7285">CheckOutService</text><line style="stroke:#181818;stroke-width:0.5;" x1="1034" x2="1319" y1="183" y2="183"/><line style="stroke:#181818;stroke-width:0.5;" x1="1034" x2="1319" y1="191" y2="191"/><ellipse cx="1044" cy="205.3047" fill="#84BE84" rx="3" ry="3" style="stroke:#038048;stroke-width:1.0;"/><text fill="#000000" font-family="sans-serif" font-size="14" lengthAdjust="spacing" textLength="261" x="1053" y="209.5332">completeOrder(amount: double): boolean</text></g><!--class RazorpayGateway--><g id="elem_RazorpayGateway"><rect codeLine="27" fill="#F1F1F1" height="48" id="RazorpayGateway" rx="2.5" ry="2.5" style="stroke:#181818;stroke-width:0.5;" width="147" x="7" y="160"/><ellipse cx="22" cy="176" fill="#ADD1B2" rx="11" ry="11" style="stroke:#181818;stroke-width:1.0;"/><path d="M24.7656,171.875 Q24.9219,171.6563 25.1094,171.5469 Q25.2969,171.4375 25.5156,171.4375 Q25.8906,171.4375 26.125,171.7031 Q26.3594,171.9531 26.3594,172.5625 L26.3594,174.0156 Q26.3594,174.625 26.125,174.8906 Q25.8906,175.1563 25.5156,175.1563 Q25.1719,175.1563 24.9688,174.9531 Q24.7656,174.7656 24.6563,174.25 Q24.6094,173.8906 24.4219,173.7031 Q24.0938,173.3281 23.4844,173.1094 Q22.875,172.8906 22.25,172.8906 Q21.4844,172.8906 20.8438,173.2188 Q20.2188,173.5469 19.7188,174.2969 Q19.2344,175.0469 19.2344,176.0781 L19.2344,177.1719 Q19.2344,178.4063 20.125,179.2344 Q21.0156,180.0469 22.6094,180.0469 Q23.5469,180.0469 24.2031,179.7969 Q24.5938,179.6406 25.0156,179.2031 Q25.2813,178.9375 25.4219,178.8594 Q25.5781,178.7813 25.7813,178.7813 Q26.1094,178.7813 26.3594,179.0469 Q26.625,179.2969 26.625,179.6406 Q26.625,179.9844 26.2813,180.3906 Q25.7813,180.9688 24.9844,181.2969 Q23.9063,181.75 22.6094,181.75 Q21.0938,181.75 19.8906,181.125 Q18.9063,180.625 18.2188,179.5625 Q17.5313,178.4844 17.5313,177.2031 L17.5313,176.0469 Q17.5313,174.7188 18.1406,173.5781 Q18.7656,172.4219 19.8594,171.8125 Q20.9531,171.1875 22.1875,171.1875 Q22.9219,171.1875 23.5625,171.3594 Q24.2188,171.5156 24.7656,171.875 Z " fill="#000000"/><text fill="#000000" font-family="sans-serif" font-size="14" lengthAdjust="spacing" textLength="115" x="36" y="181.7285">RazorpayGateway</text><line style="stroke:#181818;stroke-width:0.5;" x1="8" x2="153" y1="192" y2="192"/><line style="stroke:#181818;stroke-width:0.5;" x1="8" x2="153" y1="200" y2="200"/></g><!--class PayUGateway--><g id="elem_PayUGateway"><rect codeLine="28" fill="#F1F1F1" height="48" id="PayUGateway" rx="2.5" ry="2.5" style="stroke:#181818;stroke-width:0.5;" width="120" x="189.5" y="160"/><ellipse cx="204.5" cy="176" fill="#ADD1B2" rx="11" ry="11" style="stroke:#181818;stroke-width:1.0;"/><path d="M207.2656,171.875 Q207.4219,171.6563 207.6094,171.5469 Q207.7969,171.4375 208.0156,171.4375 Q208.3906,171.4375 208.625,171.7031 Q208.8594,171.9531 208.8594,172.5625 L208.8594,174.0156 Q208.8594,174.625 208.625,174.8906 Q208.3906,175.1563 208.0156,175.1563 Q207.6719,175.1563 207.4688,174.9531 Q207.2656,174.7656 207.1563,174.25 Q207.1094,173.8906 206.9219,173.7031 Q206.5938,173.3281 205.9844,173.1094 Q205.375,172.8906 204.75,172.8906 Q203.9844,172.8906 203.3438,173.2188 Q202.7188,173.5469 202.2188,174.2969 Q201.7344,175.0469 201.7344,176.0781 L201.7344,177.1719 Q201.7344,178.4063 202.625,179.2344 Q203.5156,180.0469 205.1094,180.0469 Q206.0469,180.0469 206.7031,179.7969 Q207.0938,179.6406 207.5156,179.2031 Q207.7813,178.9375 207.9219,178.8594 Q208.0781,178.7813 208.2813,178.7813 Q208.6094,178.7813 208.8594,179.0469 Q209.125,179.2969 209.125,179.6406 Q209.125,179.9844 208.7813,180.3906 Q208.2813,180.9688 207.4844,181.2969 Q206.4063,181.75 205.1094,181.75 Q203.5938,181.75 202.3906,181.125 Q201.4063,180.625 200.7188,179.5625 Q200.0313,178.4844 200.0313,177.2031 L200.0313,176.0469 Q200.0313,174.7188 200.6406,173.5781 Q201.2656,172.4219 202.3594,171.8125 Q203.4531,171.1875 204.6875,171.1875 Q205.4219,171.1875 206.0625,171.3594 Q206.7188,171.5156 207.2656,171.875 Z " fill="#000000"/><text fill="#000000" font-family="sans-serif" font-size="14" lengthAdjust="spacing" textLength="88" x="218.5" y="181.7285">PayUGateway</text><line style="stroke:#181818;stroke-width:0.5;" x1="190.5" x2="308.5" y1="192" y2="192"/><line style="stroke:#181818;stroke-width:0.5;" x1="190.5" x2="308.5" y1="200" y2="200"/></g><!--class RakutenPayGateway--><g id="elem_RakutenPayGateway"><rect codeLine="30" fill="#F1F1F1" height="48" id="RakutenPayGateway" rx="2.5" ry="2.5" style="stroke:#181818;stroke-width:0.5;" width="164" x="517.5" y="160"/><ellipse cx="532.5" cy="176" fill="#ADD1B2" rx="11" ry="11" style="stroke:#181818;stroke-width:1.0;"/><path d="M535.2656,171.875 Q535.4219,171.6563 535.6094,171.5469 Q535.7969,171.4375 536.0156,171.4375 Q536.3906,171.4375 536.625,171.7031 Q536.8594,171.9531 536.8594,172.5625 L536.8594,174.0156 Q536.8594,174.625 536.625,174.8906 Q536.3906,175.1563 536.0156,175.1563 Q535.6719,175.1563 535.4688,174.9531 Q535.2656,174.7656 535.1563,174.25 Q535.1094,173.8906 534.9219,173.7031 Q534.5938,173.3281 533.9844,173.1094 Q533.375,172.8906 532.75,172.8906 Q531.9844,172.8906 531.3438,173.2188 Q530.7188,173.5469 530.2188,174.2969 Q529.7344,175.0469 529.7344,176.0781 L529.7344,177.1719 Q529.7344,178.4063 530.625,179.2344 Q531.5156,180.0469 533.1094,180.0469 Q534.0469,180.0469 534.7031,179.7969 Q535.0938,179.6406 535.5156,179.2031 Q535.7813,178.9375 535.9219,178.8594 Q536.0781,178.7813 536.2813,178.7813 Q536.6094,178.7813 536.8594,179.0469 Q537.125,179.2969 537.125,179.6406 Q537.125,179.9844 536.7813,180.3906 Q536.2813,180.9688 535.4844,181.2969 Q534.4063,181.75 533.1094,181.75 Q531.5938,181.75 530.3906,181.125 Q529.4063,180.625 528.7188,179.5625 Q528.0313,178.4844 528.0313,177.2031 L528.0313,176.0469 Q528.0313,174.7188 528.6406,173.5781 Q529.2656,172.4219 530.3594,171.8125 Q531.4531,171.1875 532.6875,171.1875 Q533.4219,171.1875 534.0625,171.3594 Q534.7188,171.5156 535.2656,171.875 Z " fill="#000000"/><text fill="#000000" font-family="sans-serif" font-size="14" lengthAdjust="spacing" textLength="132" x="546.5" y="181.7285">RakutenPayGateway</text><line style="stroke:#181818;stroke-width:0.5;" x1="518.5" x2="680.5" y1="192" y2="192"/><line style="stroke:#181818;stroke-width:0.5;" x1="518.5" x2="680.5" y1="200" y2="200"/></g><!--class LinePayGateway--><g id="elem_LinePayGateway"><rect codeLine="31" fill="#F1F1F1" height="48" id="LinePayGateway" rx="2.5" ry="2.5" style="stroke:#181818;stroke-width:0.5;" width="138" x="344.5" y="160"/><ellipse cx="359.5" cy="176" fill="#ADD1B2" rx="11" ry="11" style="stroke:#181818;stroke-width:1.0;"/><path d="M362.2656,171.875 Q362.4219,171.6563 362.6094,171.5469 Q362.7969,171.4375 363.0156,171.4375 Q363.3906,171.4375 363.625,171.7031 Q363.8594,171.9531 363.8594,172.5625 L363.8594,174.0156 Q363.8594,174.625 363.625,174.8906 Q363.3906,175.1563 363.0156,175.1563 Q362.6719,175.1563 362.4688,174.9531 Q362.2656,174.7656 362.1563,174.25 Q362.1094,173.8906 361.9219,173.7031 Q361.5938,173.3281 360.9844,173.1094 Q360.375,172.8906 359.75,172.8906 Q358.9844,172.8906 358.3438,173.2188 Q357.7188,173.5469 357.2188,174.2969 Q356.7344,175.0469 356.7344,176.0781 L356.7344,177.1719 Q356.7344,178.4063 357.625,179.2344 Q358.5156,180.0469 360.1094,180.0469 Q361.0469,180.0469 361.7031,179.7969 Q362.0938,179.6406 362.5156,179.2031 Q362.7813,178.9375 362.9219,178.8594 Q363.0781,178.7813 363.2813,178.7813 Q363.6094,178.7813 363.8594,179.0469 Q364.125,179.2969 364.125,179.6406 Q364.125,179.9844 363.7813,180.3906 Q363.2813,180.9688 362.4844,181.2969 Q361.4063,181.75 360.1094,181.75 Q358.5938,181.75 357.3906,181.125 Q356.4063,180.625 355.7188,179.5625 Q355.0313,178.4844 355.0313,177.2031 L355.0313,176.0469 Q355.0313,174.7188 355.6406,173.5781 Q356.2656,172.4219 357.3594,171.8125 Q358.4531,171.1875 359.6875,171.1875 Q360.4219,171.1875 361.0625,171.3594 Q361.7188,171.5156 362.2656,171.875 Z " fill="#000000"/><text fill="#000000" font-family="sans-serif" font-size="14" lengthAdjust="spacing" textLength="106" x="373.5" y="181.7285">LinePayGateway</text><line style="stroke:#181818;stroke-width:0.5;" x1="345.5" x2="481.5" y1="192" y2="192"/><line style="stroke:#181818;stroke-width:0.5;" x1="345.5" x2="481.5" y1="200" y2="200"/></g><!--class IndianInvoice--><g id="elem_IndianInvoice"><rect codeLine="34" fill="#F1F1F1" height="48" id="IndianInvoice" rx="2.5" ry="2.5" style="stroke:#181818;stroke-width:0.5;" width="114" x="1527.5" y="160"/><ellipse cx="1542.5" cy="176" fill="#ADD1B2" rx="11" ry="11" style="stroke:#181818;stroke-width:1.0;"/><path d="M1545.2656,171.875 Q1545.4219,171.6563 1545.6094,171.5469 Q1545.7969,171.4375 1546.0156,171.4375 Q1546.3906,171.4375 1546.625,171.7031 Q1546.8594,171.9531 1546.8594,172.5625 L1546.8594,174.0156 Q1546.8594,174.625 1546.625,174.8906 Q1546.3906,175.1563 1546.0156,175.1563 Q1545.6719,175.1563 1545.4688,174.9531 Q1545.2656,174.7656 1545.1563,174.25 Q1545.1094,173.8906 1544.9219,173.7031 Q1544.5938,173.3281 1543.9844,173.1094 Q1543.375,172.8906 1542.75,172.8906 Q1541.9844,172.8906 1541.3438,173.2188 Q1540.7188,173.5469 1540.2188,174.2969 Q1539.7344,175.0469 1539.7344,176.0781 L1539.7344,177.1719 Q1539.7344,178.4063 1540.625,179.2344 Q1541.5156,180.0469 1543.1094,180.0469 Q1544.0469,180.0469 1544.7031,179.7969 Q1545.0938,179.6406 1545.5156,179.2031 Q1545.7813,178.9375 1545.9219,178.8594 Q1546.0781,178.7813 1546.2813,178.7813 Q1546.6094,178.7813 1546.8594,179.0469 Q1547.125,179.2969 1547.125,179.6406 Q1547.125,179.9844 1546.7813,180.3906 Q1546.2813,180.9688 1545.4844,181.2969 Q1544.4063,181.75 1543.1094,181.75 Q1541.5938,181.75 1540.3906,181.125 Q1539.4063,180.625 1538.7188,179.5625 Q1538.0313,178.4844 1538.0313,177.2031 L1538.0313,176.0469 Q1538.0313,174.7188 1538.6406,173.5781 Q1539.2656,172.4219 1540.3594,171.8125 Q1541.4531,171.1875 1542.6875,171.1875 Q1543.4219,171.1875 1544.0625,171.3594 Q1544.7188,171.5156 1545.2656,171.875 Z " fill="#000000"/><text fill="#000000" font-family="sans-serif" font-size="14" lengthAdjust="spacing" textLength="82" x="1556.5" y="181.7285">IndianInvoice</text><line style="stroke:#181818;stroke-width:0.5;" x1="1528.5" x2="1640.5" y1="192" y2="192"/><line style="stroke:#181818;stroke-width:0.5;" x1="1528.5" x2="1640.5" y1="200" y2="200"/></g><!--class JapaneseInvoice--><g id="elem_JapaneseInvoice"><rect codeLine="35" fill="#F1F1F1" height="48" id="JapaneseInvoice" rx="2.5" ry="2.5" style="stroke:#181818;stroke-width:0.5;" width="137" x="1355" y="160"/><ellipse cx="1370" cy="176" fill="#ADD1B2" rx="11" ry="11" style="stroke:#181818;stroke-width:1.0;"/><path d="M1372.7656,171.875 Q1372.9219,171.6563 1373.1094,171.5469 Q1373.2969,171.4375 1373.5156,171.4375 Q1373.8906,171.4375 1374.125,171.7031 Q1374.3594,171.9531 1374.3594,172.5625 L1374.3594,174.0156 Q1374.3594,174.625 1374.125,174.8906 Q1373.8906,175.1563 1373.5156,175.1563 Q1373.1719,175.1563 1372.9688,174.9531 Q1372.7656,174.7656 1372.6563,174.25 Q1372.6094,173.8906 1372.4219,173.7031 Q1372.0938,173.3281 1371.4844,173.1094 Q1370.875,172.8906 1370.25,172.8906 Q1369.4844,172.8906 1368.8438,173.2188 Q1368.2188,173.5469 1367.7188,174.2969 Q1367.2344,175.0469 1367.2344,176.0781 L1367.2344,177.1719 Q1367.2344,178.4063 1368.125,179.2344 Q1369.0156,180.0469 1370.6094,180.0469 Q1371.5469,180.0469 1372.2031,179.7969 Q1372.5938,179.6406 1373.0156,179.2031 Q1373.2813,178.9375 1373.4219,178.8594 Q1373.5781,178.7813 1373.7813,178.7813 Q1374.1094,178.7813 1374.3594,179.0469 Q1374.625,179.2969 1374.625,179.6406 Q1374.625,179.9844 1374.2813,180.3906 Q1373.7813,180.9688 1372.9844,181.2969 Q1371.9063,181.75 1370.6094,181.75 Q1369.0938,181.75 1367.8906,181.125 Q1366.9063,180.625 1366.2188,179.5625 Q1365.5313,178.4844 1365.5313,177.2031 L1365.5313,176.0469 Q1365.5313,174.7188 1366.1406,173.5781 Q1366.7656,172.4219 1367.8594,171.8125 Q1368.9531,171.1875 1370.1875,171.1875 Q1370.9219,171.1875 1371.5625,171.3594 Q1372.2188,171.5156 1372.7656,171.875 Z " fill="#000000"/><text fill="#000000" font-family="sans-serif" font-size="14" lengthAdjust="spacing" textLength="105" x="1384" y="181.7285">JapaneseInvoice</text><line style="stroke:#181818;stroke-width:0.5;" x1="1356" x2="1491" y1="192" y2="192"/><line style="stroke:#181818;stroke-width:0.5;" x1="1356" x2="1491" y1="200" y2="200"/></g><!--class CheckOutServiceImpl--><g id="elem_CheckOutServiceImpl"><rect codeLine="38" fill="#F1F1F1" height="65.6094" id="CheckOutServiceImpl" rx="2.5" ry="2.5" style="stroke:#181818;stroke-width:0.5;" width="716" x="818.5" y="7"/><ellipse cx="1104.75" cy="23" fill="#ADD1B2" rx="11" ry="11" style="stroke:#181818;stroke-width:1.0;"/><path d="M1107.5156,18.875 Q1107.6719,18.6563 1107.8594,18.5469 Q1108.0469,18.4375 1108.2656,18.4375 Q1108.6406,18.4375 1108.875,18.7031 Q1109.1094,18.9531 1109.1094,19.5625 L1109.1094,21.0156 Q1109.1094,21.625 1108.875,21.8906 Q1108.6406,22.1563 1108.2656,22.1563 Q1107.9219,22.1563 1107.7188,21.9531 Q1107.5156,21.7656 1107.4063,21.25 Q1107.3594,20.8906 1107.1719,20.7031 Q1106.8438,20.3281 1106.2344,20.1094 Q1105.625,19.8906 1105,19.8906 Q1104.2344,19.8906 1103.5938,20.2188 Q1102.9688,20.5469 1102.4688,21.2969 Q1101.9844,22.0469 1101.9844,23.0781 L1101.9844,24.1719 Q1101.9844,25.4063 1102.875,26.2344 Q1103.7656,27.0469 1105.3594,27.0469 Q1106.2969,27.0469 1106.9531,26.7969 Q1107.3438,26.6406 1107.7656,26.2031 Q1108.0313,25.9375 1108.1719,25.8594 Q1108.3281,25.7813 1108.5313,25.7813 Q1108.8594,25.7813 1109.1094,26.0469 Q1109.375,26.2969 1109.375,26.6406 Q1109.375,26.9844 1109.0313,27.3906 Q1108.5313,27.9688 1107.7344,28.2969 Q1106.6563,28.75 1105.3594,28.75 Q1103.8438,28.75 1102.6406,28.125 Q1101.6563,27.625 1100.9688,26.5625 Q1100.2813,25.4844 1100.2813,24.2031 L1100.2813,23.0469 Q1100.2813,21.7188 1100.8906,20.5781 Q1101.5156,19.4219 1102.6094,18.8125 Q1103.7031,18.1875 1104.9375,18.1875 Q1105.6719,18.1875 1106.3125,18.3594 Q1106.9688,18.5156 1107.5156,18.875 Z " fill="#000000"/><text fill="#000000" font-family="sans-serif" font-size="14" lengthAdjust="spacing" textLength="135" x="1125.25" y="28.7285">CheckOutServiceImpl</text><line style="stroke:#181818;stroke-width:0.5;" x1="819.5" x2="1533.5" y1="39" y2="39"/><line style="stroke:#181818;stroke-width:0.5;" x1="819.5" x2="1533.5" y1="47" y2="47"/><ellipse cx="829.5" cy="61.3047" fill="#84BE84" rx="3" ry="3" style="stroke:#038048;stroke-width:1.0;"/><text fill="#000000" font-family="sans-serif" font-size="14" lengthAdjust="spacing" textLength="690" x="838.5" y="65.5332">&#171;create&#187; checkOutServiceImpl(regionFactory: RegionFactory, paymentGatewayType: PaymentGatewayType)</text></g><!--class IndianFactory--><g id="elem_IndianFactory"><rect codeLine="42" fill="#F1F1F1" height="48" id="IndianFactory" rx="2.5" ry="2.5" style="stroke:#181818;stroke-width:0.5;" width="118" x="406.5" y="16"/><ellipse cx="421.5" cy="32" fill="#ADD1B2" rx="11" ry="11" style="stroke:#181818;stroke-width:1.0;"/><path d="M424.2656,27.875 Q424.4219,27.6563 424.6094,27.5469 Q424.7969,27.4375 425.0156,27.4375 Q425.3906,27.4375 425.625,27.7031 Q425.8594,27.9531 425.8594,28.5625 L425.8594,30.0156 Q425.8594,30.625 425.625,30.8906 Q425.3906,31.1563 425.0156,31.1563 Q424.6719,31.1563 424.4688,30.9531 Q424.2656,30.7656 424.1563,30.25 Q424.1094,29.8906 423.9219,29.7031 Q423.5938,29.3281 422.9844,29.1094 Q422.375,28.8906 421.75,28.8906 Q420.9844,28.8906 420.3438,29.2188 Q419.7188,29.5469 419.2188,30.2969 Q418.7344,31.0469 418.7344,32.0781 L418.7344,33.1719 Q418.7344,34.4063 419.625,35.2344 Q420.5156,36.0469 422.1094,36.0469 Q423.0469,36.0469 423.7031,35.7969 Q424.0938,35.6406 424.5156,35.2031 Q424.7813,34.9375 424.9219,34.8594 Q425.0781,34.7813 425.2813,34.7813 Q425.6094,34.7813 425.8594,35.0469 Q426.125,35.2969 426.125,35.6406 Q426.125,35.9844 425.7813,36.3906 Q425.2813,36.9688 424.4844,37.2969 Q423.4063,37.75 422.1094,37.75 Q420.5938,37.75 419.3906,37.125 Q418.4063,36.625 417.7188,35.5625 Q417.0313,34.4844 417.0313,33.2031 L417.0313,32.0469 Q417.0313,30.7188 417.6406,29.5781 Q418.2656,28.4219 419.3594,27.8125 Q420.4531,27.1875 421.6875,27.1875 Q422.4219,27.1875 423.0625,27.3594 Q423.7188,27.5156 424.2656,27.875 Z " fill="#000000"/><text fill="#000000" font-family="sans-serif" font-size="14" lengthAdjust="spacing" textLength="86" x="435.5" y="37.7285">IndianFactory</text><line style="stroke:#181818;stroke-width:0.5;" x1="407.5" x2="523.5" y1="48" y2="48"/><line style="stroke:#181818;stroke-width:0.5;" x1="407.5" x2="523.5" y1="56" y2="56"/></g><!--class JapaneseFactory--><g id="elem_JapaneseFactory"><rect codeLine="43" fill="#F1F1F1" height="48" id="JapaneseFactory" rx="2.5" ry="2.5" style="stroke:#181818;stroke-width:0.5;" width="141" x="613" y="16"/><ellipse cx="628" cy="32" fill="#ADD1B2" rx="11" ry="11" style="stroke:#181818;stroke-width:1.0;"/><path d="M630.7656,27.875 Q630.9219,27.6563 631.1094,27.5469 Q631.2969,27.4375 631.5156,27.4375 Q631.8906,27.4375 632.125,27.7031 Q632.3594,27.9531 632.3594,28.5625 L632.3594,30.0156 Q632.3594,30.625 632.125,30.8906 Q631.8906,31.1563 631.5156,31.1563 Q631.1719,31.1563 630.9688,30.9531 Q630.7656,30.7656 630.6563,30.25 Q630.6094,29.8906 630.4219,29.7031 Q630.0938,29.3281 629.4844,29.1094 Q628.875,28.8906 628.25,28.8906 Q627.4844,28.8906 626.8438,29.2188 Q626.2188,29.5469 625.7188,30.2969 Q625.2344,31.0469 625.2344,32.0781 L625.2344,33.1719 Q625.2344,34.4063 626.125,35.2344 Q627.0156,36.0469 628.6094,36.0469 Q629.5469,36.0469 630.2031,35.7969 Q630.5938,35.6406 631.0156,35.2031 Q631.2813,34.9375 631.4219,34.8594 Q631.5781,34.7813 631.7813,34.7813 Q632.1094,34.7813 632.3594,35.0469 Q632.625,35.2969 632.625,35.6406 Q632.625,35.9844 632.2813,36.3906 Q631.7813,36.9688 630.9844,37.2969 Q629.9063,37.75 628.6094,37.75 Q627.0938,37.75 625.8906,37.125 Q624.9063,36.625 624.2188,35.5625 Q623.5313,34.4844 623.5313,33.2031 L623.5313,32.0469 Q623.5313,30.7188 624.1406,29.5781 Q624.7656,28.4219 625.8594,27.8125 Q626.9531,27.1875 628.1875,27.1875 Q628.9219,27.1875 629.5625,27.3594 Q630.2188,27.5156 630.7656,27.875 Z " fill="#000000"/><text fill="#000000" font-family="sans-serif" font-size="14" lengthAdjust="spacing" textLength="109" x="642" y="37.7285">JapaneseFactory</text><line style="stroke:#181818;stroke-width:0.5;" x1="614" x2="753" y1="48" y2="48"/><line style="stroke:#181818;stroke-width:0.5;" x1="614" x2="753" y1="56" y2="56"/></g><!--class CheckoutService--><g id="elem_CheckoutService"><rect fill="#F1F1F1" height="48" id="CheckoutService" rx="2.5" ry="2.5" style="stroke:#181818;stroke-width:0.5;" width="139" x="859" y="160"/><ellipse cx="874" cy="176" fill="#ADD1B2" rx="11" ry="11" style="stroke:#181818;stroke-width:1.0;"/><path d="M876.7656,171.875 Q876.9219,171.6563 877.1094,171.5469 Q877.2969,171.4375 877.5156,171.4375 Q877.8906,171.4375 878.125,171.7031 Q878.3594,171.9531 878.3594,172.5625 L878.3594,174.0156 Q878.3594,174.625 878.125,174.8906 Q877.8906,175.1563 877.5156,175.1563 Q877.1719,175.1563 876.9688,174.9531 Q876.7656,174.7656 876.6563,174.25 Q876.6094,173.8906 876.4219,173.7031 Q876.0938,173.3281 875.4844,173.1094 Q874.875,172.8906 874.25,172.8906 Q873.4844,172.8906 872.8438,173.2188 Q872.2188,173.5469 871.7188,174.2969 Q871.2344,175.0469 871.2344,176.0781 L871.2344,177.1719 Q871.2344,178.4063 872.125,179.2344 Q873.0156,180.0469 874.6094,180.0469 Q875.5469,180.0469 876.2031,179.7969 Q876.5938,179.6406 877.0156,179.2031 Q877.2813,178.9375 877.4219,178.8594 Q877.5781,178.7813 877.7813,178.7813 Q878.1094,178.7813 878.3594,179.0469 Q878.625,179.2969 878.625,179.6406 Q878.625,179.9844 878.2813,180.3906 Q877.7813,180.9688 876.9844,181.2969 Q875.9063,181.75 874.6094,181.75 Q873.0938,181.75 871.8906,181.125 Q870.9063,180.625 870.2188,179.5625 Q869.5313,178.4844 869.5313,177.2031 L869.5313,176.0469 Q869.5313,174.7188 870.1406,173.5781 Q870.7656,172.4219 871.8594,171.8125 Q872.9531,171.1875 874.1875,171.1875 Q874.9219,171.1875 875.5625,171.3594 Q876.2188,171.5156 876.7656,171.875 Z " fill="#000000"/><text fill="#000000" font-family="sans-serif" font-size="14" lengthAdjust="spacing" textLength="107" x="888" y="181.7285">CheckoutService</text><line style="stroke:#181818;stroke-width:0.5;" x1="860" x2="997" y1="192" y2="192"/><line style="stroke:#181818;stroke-width:0.5;" x1="860" x2="997" y1="200" y2="200"/></g><!--link RazorpayGateway to PaymentGateway--><g id="link_RazorpayGateway_PaymentGateway"><path codeLine="46" d="M144.18,208.1 C203.84,229.74 276.629,256.1515 343.199,280.3015 " fill="none" id="RazorpayGateway-to-PaymentGateway" style="stroke:#181818;stroke-width:1.0;stroke-dasharray:7.0,7.0;"/><polygon fill="none" points="360.12,286.44,345.2452,274.6612,341.1529,285.9418,360.12,286.44" style="stroke:#181818;stroke-width:1.0;"/></g><!--link PayUGateway to PaymentGateway--><g id="link_PayUGateway_PaymentGateway"><path codeLine="47" d="M284.16,208.25 C316.35,229.84 349.6107,252.1641 385.5007,276.2341 " fill="none" id="PayUGateway-to-PaymentGateway" style="stroke:#181818;stroke-width:1.0;stroke-dasharray:7.0,7.0;"/><polygon fill="none" points="400.45,286.26,388.8427,271.251,382.1587,281.2172,400.45,286.26" style="stroke:#181818;stroke-width:1.0;"/></g><!--link RakutenPayGateway to PaymentGateway--><g id="link_RakutenPayGateway_PaymentGateway"><path codeLine="48" d="M573.2,208.25 C548.78,229.84 525.6886,250.2712 498.4486,274.3412 " fill="none" id="RakutenPayGateway-to-PaymentGateway" style="stroke:#181818;stroke-width:1.0;stroke-dasharray:7.0,7.0;"/><polygon fill="none" points="484.96,286.26,502.4215,278.8373,494.4756,269.845,484.96,286.26" style="stroke:#181818;stroke-width:1.0;"/></g><!--link LinePayGateway to PaymentGateway--><g id="link_LinePayGateway_PaymentGateway"><path codeLine="49" d="M419.6,208.25 C425.24,229.77 429.1187,244.5475 435.4187,268.5975 " fill="none" id="LinePayGateway-to-PaymentGateway" style="stroke:#181818;stroke-width:1.0;stroke-dasharray:7.0,7.0;"/><polygon fill="none" points="439.98,286.01,441.2229,267.0771,429.6146,270.1179,439.98,286.01" style="stroke:#181818;stroke-width:1.0;"/></g><!--link IndianInvoice to Invoice--><g id="link_IndianInvoice_Invoice"><path codeLine="52" d="M1546.88,208.25 C1511.94,229.84 1474.9332,252.7293 1435.9732,276.7993 " fill="none" id="IndianInvoice-to-Invoice" style="stroke:#181818;stroke-width:1.0;stroke-dasharray:7.0,7.0;"/><polygon fill="none" points="1420.66,286.26,1439.1268,281.9037,1432.8197,271.6949,1420.66,286.26" style="stroke:#181818;stroke-width:1.0;"/></g><!--link JapaneseInvoice to Invoice--><g id="link_JapaneseInvoice_Invoice"><path codeLine="53" d="M1413.92,208.25 C1405.06,229.77 1398.6477,245.3175 1388.7377,269.3675 " fill="none" id="JapaneseInvoice-to-Invoice" style="stroke:#181818;stroke-width:1.0;stroke-dasharray:7.0,7.0;"/><polygon fill="none" points="1381.88,286.01,1394.2852,271.6534,1383.1902,267.0816,1381.88,286.01" style="stroke:#181818;stroke-width:1.0;"/></g><!--link CheckOutServiceImpl to CheckOutService--><g id="link_CheckOutServiceImpl_CheckOutService"><path codeLine="56" d="M1176.5,73.22 C1176.5,96.46 1176.5,109.7 1176.5,132.91 " fill="none" id="CheckOutServiceImpl-to-CheckOutService" style="stroke:#181818;stroke-width:1.0;stroke-dasharray:7.0,7.0;"/><polygon fill="none" points="1176.5,150.91,1182.5,132.91,1170.5,132.91,1176.5,150.91" style="stroke:#181818;stroke-width:1.0;"/></g><!--link IndianFactory to RegionFactory--><g id="link_IndianFactory_RegionFactory"><path codeLine="59" d="M524.62,55.76 C591.67,72.62 692.76,98.47 700.5,103 C777.43,148 834.1078,214.5894 870.3878,263.4394 " fill="none" id="IndianFactory-to-RegionFactory" style="stroke:#181818;stroke-width:1.0;stroke-dasharray:7.0,7.0;"/><polygon fill="none" points="881.12,277.89,875.2047,259.862,865.5709,267.0168,881.12,277.89" style="stroke:#181818;stroke-width:1.0;"/></g><!--link JapaneseFactory to RegionFactory--><g id="link_JapaneseFactory_RegionFactory"><path codeLine="60" d="M689.08,64.24 C700.05,105.69 727.97,193.14 779.5,248 C790.22,259.42 788.006,259.7705 801.576,268.3505 " fill="none" id="JapaneseFactory-to-RegionFactory" style="stroke:#181818;stroke-width:1.0;stroke-dasharray:7.0,7.0;"/><polygon fill="none" points="816.79,277.97,804.7825,263.2792,798.3695,273.4219,816.79,277.97" style="stroke:#181818;stroke-width:1.0;"/></g><!--link CheckOutService to RegionFactory--><g id="link_CheckOutService_RegionFactory"><path codeLine="65" d="M1112.21,217.15 C1075.79,235.35 1035.2466,255.6267 996.3266,275.0867 " fill="none" id="CheckOutService-to-RegionFactory" style="stroke:#181818;stroke-width:1.0;stroke-dasharray:7.0,7.0;"/><polygon fill="#181818" points="990.96,277.77,1000.7987,277.3228,995.4321,275.5339,997.221,270.1674,990.96,277.77" style="stroke:#181818;stroke-width:1.0;"/></g><!--link CheckOutService to Invoice--><g id="link_CheckOutService_Invoice"><path codeLine="66" d="M1222.98,217.32 C1253.17,238.31 1287.4239,262.1246 1317.5239,283.0546 " fill="none" id="CheckOutService-to-Invoice" style="stroke:#181818;stroke-width:1.0;stroke-dasharray:7.0,7.0;"/><polygon fill="#181818" points="1322.45,286.48,1317.3444,278.0578,1318.3449,283.6255,1312.7772,284.626,1322.45,286.48" style="stroke:#181818;stroke-width:1.0;"/></g><!--link CheckOutService to PaymentGateway--><g id="link_CheckOutService_PaymentGateway"><path codeLine="67" d="M1032.6,213.91 C1026.83,214.97 1021.11,216.01 1015.5,217 C841.44,247.79 796.03,244.39 622.5,278 C609.25,280.57 601.3535,282.1574 587.6235,285.1374 " fill="none" id="CheckOutService-to-PaymentGateway" style="stroke:#181818;stroke-width:1.0;stroke-dasharray:7.0,7.0;"/><polygon fill="#181818" points="581.76,286.41,591.4036,288.41,586.6462,285.3495,589.7068,280.5921,581.76,286.41" style="stroke:#181818;stroke-width:1.0;"/></g><!--link PaymentGateway to PaymentGatewayType--><g id="link_PaymentGateway_PaymentGatewayType"><path codeLine="68" d="M448.5,352.78 C448.5,372.62 448.5,392.63 448.5,415.96 " fill="none" id="PaymentGateway-to-PaymentGatewayType" style="stroke:#181818;stroke-width:1.0;stroke-dasharray:7.0,7.0;"/><polygon fill="#181818" points="448.5,421.96,452.5,412.96,448.5,416.96,444.5,412.96,448.5,421.96" style="stroke:#181818;stroke-width:1.0;"/></g><!--link CheckoutService to PaymentGateway--><g id="link_CheckoutService_PaymentGateway"><path codeLine="71" d="M858.91,197.68 C801.45,208.77 718.01,226.32 646.5,247 C607.7,258.22 571.1288,270.9655 535.6988,284.2355 " fill="none" id="CheckoutService-to-PaymentGateway" style="stroke:#181818;stroke-width:1.0;stroke-dasharray:7.0,7.0;"/><polygon fill="#181818" points="530.08,286.34,539.9112,286.9292,534.7624,284.5863,537.1052,279.4374,530.08,286.34" style="stroke:#181818;stroke-width:1.0;"/></g><!--link CheckoutService to Invoice--><g id="link_CheckoutService_Invoice"><path codeLine="72" d="M989.62,208.11 C998.27,211.2 1007.09,214.25 1015.5,217 C1100.8,244.91 1193.2228,271.2261 1264.3628,290.6961 " fill="none" id="CheckoutService-to-Invoice" style="stroke:#181818;stroke-width:1.0;stroke-dasharray:7.0,7.0;"/><polygon fill="#181818" points="1270.15,292.28,1262.5252,286.0461,1265.3274,290.9601,1260.4133,293.7623,1270.15,292.28" style="stroke:#181818;stroke-width:1.0;"/></g><!--link CheckoutService to RegionFactory--><g id="link_CheckoutService_RegionFactory"><path codeLine="73" d="M925.19,208.25 C922.46,227.45 919.3656,249.2199 916.1156,272.0499 " fill="none" id="CheckoutService-to-RegionFactory" style="stroke:#181818;stroke-width:1.0;stroke-dasharray:7.0,7.0;"/><polygon fill="#181818" points="915.27,277.99,920.4985,269.6436,915.9747,273.0399,912.5783,268.5161,915.27,277.99" style="stroke:#181818;stroke-width:1.0;"/></g><!--link IndianFactory to RazorpayGateway--><g id="link_IndianFactory_RazorpayGateway"><path codeLine="75" d="M406.16,61.99 C372.73,73.89 330.23,89.12 292.5,103 C241.18,121.88 188.6976,141.7057 146.3176,157.8357 " fill="none" id="IndianFactory-to-RazorpayGateway" style="stroke:#181818;stroke-width:1.0;"/><polygon fill="#181818" points="140.71,159.97,150.5442,160.507,145.383,158.1914,147.6985,153.0302,140.71,159.97" style="stroke:#181818;stroke-width:1.0;"/><text fill="#000000" font-family="sans-serif" font-size="13" lengthAdjust="spacing" textLength="43" x="293.5" y="117.4951">creates</text></g><!--link IndianFactory to PayUGateway--><g id="link_IndianFactory_PayUGateway"><path codeLine="76" d="M430.32,64.13 C390.15,90.54 329.8437,130.1841 289.6837,156.5841 " fill="none" id="IndianFactory-to-PayUGateway" style="stroke:#181818;stroke-width:1.0;"/><polygon fill="#181818" points="284.67,159.88,294.3878,158.2787,288.8481,157.1334,289.9933,151.5937,284.67,159.88" style="stroke:#181818;stroke-width:1.0;"/><text fill="#000000" font-family="sans-serif" font-size="13" lengthAdjust="spacing" textLength="43" x="371.5" y="117.4951">creates</text></g><!--link IndianFactory to IndianInvoice--><g id="link_IndianFactory_IndianInvoice"><path codeLine="77" d="M524.56,58.11 C546.63,63.82 572.04,69.6 595.5,73 C877.31,113.89 952.47,71.7 1235.5,103 C1358.38,116.59 1390.97,115.84 1509.5,151 C1517.78,153.46 1520.7954,154.3409 1529.0854,157.6409 " fill="none" id="IndianFactory-to-IndianInvoice" style="stroke:#181818;stroke-width:1.0;"/><polygon fill="#181818" points="1534.66,159.86,1527.7775,152.815,1530.0145,158.0108,1524.8188,160.2478,1534.66,159.86" style="stroke:#181818;stroke-width:1.0;"/><text fill="#000000" font-family="sans-serif" font-size="13" lengthAdjust="spacing" textLength="43" x="1383.5" y="117.4951">creates</text></g><!--link JapaneseFactory to RakutenPayGateway--><g id="link_JapaneseFactory_RakutenPayGateway"><path codeLine="79" d="M669.82,64.13 C654.2,90.54 631.8553,128.3162 616.2353,154.7162 " fill="none" id="JapaneseFactory-to-RakutenPayGateway" style="stroke:#181818;stroke-width:1.0;"/><polygon fill="#181818" points="613.18,159.88,621.2055,154.1711,615.7261,155.5768,614.3203,150.0974,613.18,159.88" style="stroke:#181818;stroke-width:1.0;"/><text fill="#000000" font-family="sans-serif" font-size="13" lengthAdjust="spacing" textLength="43" x="648.5" y="117.4951">creates</text></g><!--link JapaneseFactory to LinePayGateway--><g id="link_JapaneseFactory_LinePayGateway"><path codeLine="80" d="M639.52,64.13 C589.31,90.54 512.9704,130.6873 462.7704,157.0873 " fill="none" id="JapaneseFactory-to-LinePayGateway" style="stroke:#181818;stroke-width:1.0;"/><polygon fill="#181818" points="457.46,159.88,467.2875,159.2312,461.8854,157.5527,463.5638,152.1506,457.46,159.88" style="stroke:#181818;stroke-width:1.0;"/><text fill="#000000" font-family="sans-serif" font-size="13" lengthAdjust="spacing" textLength="43" x="566.5" y="117.4951">creates</text></g><!--link JapaneseFactory to JapaneseInvoice--><g id="link_JapaneseFactory_JapaneseInvoice"><path codeLine="81" d="M754,61.78 C769.25,65.86 785.35,69.84 800.5,73 C1036.59,122.24 1103.84,91.28 1337.5,151 C1347.07,153.45 1351.3849,154.6034 1361.0149,157.9634 " fill="none" id="JapaneseFactory-to-JapaneseInvoice" style="stroke:#181818;stroke-width:1.0;"/><polygon fill="#181818" points="1366.68,159.94,1359.5001,153.1984,1361.9591,158.2928,1356.8647,160.7518,1366.68,159.94" style="stroke:#181818;stroke-width:1.0;"/><text fill="#000000" font-family="sans-serif" font-size="13" lengthAdjust="spacing" textLength="43" x="1183.5" y="117.4951">creates</text></g><!--SRC=[XLJTJi8m5BxVK_HEYCe3B6O9CKfG8WJbGkzgTyG5rYvTfy6VTxUbBLlF2d83dFETm_Tp1l2c90kwAu6h2LNmINTFkmh8TqBqQpb-cIyNu-Vz5_s-SjNxrTFDm_xpRFfmOm2_IL9m1VADCa3xtAxpIWe6TUsQ0rgAXgkKvA9vtS8m9Qz2R87oSDMKVuY2UJxdQ-0WzLfN7XmRMyAw4FoMCYNaWG2Je4T3SeDrApgD6374nQCytCUGn_KxiCsyKOyWFpeoc2YhBIYOonpaIIVEI6L_dZYY2TlIkYPB-YMaRas2ggQwyfK3SDCeu0iCdHKSEaNzGrw0xKzvNb0UrkveHJdKNhKPsWiKhS2f5kRGIBlfUFrNLpQBB2EiZnh8Rdff6EQ5DsJoJt36lQuKDu-a-AgMudQGmaX0_fBHw2V3bz1nEzhlMHz5XK548MqurjyW6plX8q4HXSrZUSMIsW-YXbbWmqW2JoquY2b11iSWYTcNGmKy1yvsc8OUmHCnX1SNw_K3w_ulzH7cS0ofSLqBLb1bb6B78djZa82ME2KAUNbvcU6dcwJ4FYzr1DkzmbEuy6XQP2yfIm2VRZiGmwCZFWt6DzhXyWS0]--></g></svg>